<?xml version="1.0"?>
<svg xmlns:rdf="http://www.w3.org/1999/02/22-rdf-syntax-ns#" xmlns="http://www.w3.org/2000/svg" xmlns:cc="http://creativecommons.org/ns#" xmlns:xlink="http://www.w3.org/1999/xlink" xmlns:dc="http://purl.org/dc/elements/1.1/" xmlns:svg="http://www.w3.org/2000/svg" id="svg2" viewBox="0 0 610 610" version="1.1">
  <g id="layer4" transform="translate(5 -397.36)">
    <rect id="rect5840" stroke-linejoin="round" ry="1.5381" height="600" width="600" stroke="#4a0" y="402.36" x="0" stroke-width="10" fill="none"/>
    <path id="path6738" stroke-linejoin="round" d="m159.28 479.14-1.5993 1.1116c-112.63 79.38-142.79 238.62-67.549 356.68 19.126 30.012 43.234 54.496 70.424 73.061l21.77-34.63c-22.83-15.59-43.06-36.15-59.12-61.35-63.164-99.12-37.841-232.8 56.72-299.44l1.3468-0.93612-21.997-34.49zm275.58 0.98-22.235 34.329c21.869 15.381 41.283 35.377 56.788 59.707 63.521 99.676 37.521 234.18-58.079 300.41l21.983 34.49c113.87-78.888 144.84-239.08 69.175-357.8-18.467-28.979-41.586-52.81-67.632-71.13z" fill-rule="evenodd" stroke="#f3f3f3" stroke-width=".45839" fill="#4a0"/>
    <path id="path6750" stroke-linejoin="round" d="m202.62 547.27-1.0935 0.76007c-77.012 54.275-97.629 163.15-46.186 243.88 13.077 20.52 29.561 37.261 48.152 49.955l14.887-23.682c-15.62-10.67-29.46-24.73-40.44-41.95-43.18-67.77-25.87-159.18 38.79-204.74l0.92083-0.64007-15.04-23.582zm188.43 0.67007-15.203 23.472c14.953 10.516 28.227 24.189 38.829 40.824 43.432 68.153 25.655 160.12-39.711 205.4l15.031 23.582c77.859-53.939 99.031-163.47 47.298-244.65-12.627-19.814-28.434-36.108-46.243-48.635z" fill-rule="evenodd" stroke="#f3f3f3" stroke-width=".31342" fill="#4a0"/>
    <path id="path6752" stroke-linejoin="round" d="m238.31 603.38-0.67697 0.47055c-47.678 33.601-60.441 101.01-28.593 150.98 8.0959 12.704 18.301 23.068 29.81 30.927l9.2163-14.662c-9.6619-6.5977-18.228-15.303-25.024-25.967-26.738-41.956-16.019-98.544 24.009-126.75l0.57008-0.39626-9.3113-14.6zm116.65 0.41483-9.4123 14.532c9.2571 6.5106 17.475 14.975 24.038 25.274 26.888 42.193 15.882 99.127-24.585 127.16l9.3054 14.6c48.202-33.393 61.309-101.2 29.282-151.46-7.8172-12.267-17.603-22.354-28.629-30.11z" fill-rule="evenodd" stroke="#f3f3f3" stroke-width=".19404" fill="#4a0"/>
    <path id="path6754" stroke-linejoin="round" d="m264.65 644.79-0.36954 0.25686c-26.026 18.342-32.993 55.136-15.608 82.416 4.4193 6.9347 9.99 12.592 16.273 16.882l5.0309-8.0033c-5.2741-3.6015-9.9501-8.3534-13.66-14.175-14.595-22.903-8.7441-53.792 13.106-69.191l0.31119-0.21631-5.0828-7.9696zm63.677 0.22645-5.1379 7.9324c5.0532 3.5539 9.5392 8.1745 13.122 13.796 14.678 23.032 8.6698 54.111-13.42 69.414l5.0795 7.9696c26.312-18.228 33.467-55.243 15.984-82.676-4.2672-6.696-9.6091-12.203-15.628-16.436z" fill-rule="evenodd" stroke="#f3f3f3" stroke-width=".10592" fill="#4a0"/>
    <path id="path6766" stroke="#000" stroke-width=".45839px" fill="#250" d="m297.71 675.36c-3.335-0.0267-6.7209 0.94386-9.7078 3.0131l-0.11223 0.0878c-7.8785 5.5524-9.9764 16.681-4.7136 24.939 2.0536 3.2225 4.9216 5.53 8.1366 6.8308-3.5926 51.212-14.836 216.04-11.041 220.56h31.424l-8.9363-220.15c1.5258-0.49873 3.0202-1.225 4.419-2.194 7.9651-5.518 10.132-16.722 4.8399-25.027-3.3077-5.1904-8.7509-8.0148-14.309-8.0594z"/>
  </g>
  <metadata>
    <rdf:RDF>
      <cc:Work>
        <dc:format>image/svg+xml</dc:format>
        <dc:type rdf:resource="http://purl.org/dc/dcmitype/StillImage"/>
        <cc:license rdf:resource="http://creativecommons.org/licenses/publicdomain/"/>
        <dc:publisher>
          <cc:Agent rdf:about="http://openclipart.org/">
            <dc:title>Openclipart</dc:title>
          </cc:Agent>
        </dc:publisher>
        <dc:title>eco green wifi pollution icon</dc:title>
        <dc:date>2012-05-27T16:49:28</dc:date>
        <dc:description>clip art, clipart, ecology, green, icon, pollution, radio, wifi, </dc:description>
        <dc:source>http://openclipart.org/detail/170253/eco-wifi-pollution-by-cybergedeon</dc:source>
        <dc:creator>
          <cc:Agent>
            <dc:title>dominiquechappard</dc:title>
          </cc:Agent>
        </dc:creator>
        <dc:subject>
          <rdf:Bag>
            <rdf:li>clip art</rdf:li>
            <rdf:li>clipart</rdf:li>
            <rdf:li>ecology</rdf:li>
            <rdf:li>green</rdf:li>
            <rdf:li>icon</rdf:li>
            <rdf:li>pollution</rdf:li>
            <rdf:li>radio</rdf:li>
            <rdf:li>wifi</rdf:li>
          </rdf:Bag>
        </dc:subject>
      </cc:Work>
      <cc:License rdf:about="http://creativecommons.org/licenses/publicdomain/">
        <cc:permits rdf:resource="http://creativecommons.org/ns#Reproduction"/>
        <cc:permits rdf:resource="http://creativecommons.org/ns#Distribution"/>
        <cc:permits rdf:resource="http://creativecommons.org/ns#DerivativeWorks"/>
      </cc:License>
    </rdf:RDF>
  </metadata>
</svg>
